<svg width="76" height="76" viewBox="0 0 76 76" fill="none" xmlns="http://www.w3.org/2000/svg">
<path d="M75.8862 37.7638C75.8862 57.4329 59.0969 73.3778 38.3862 73.3778C17.6756 73.3778 0.88623 57.4329 0.88623 37.7638C0.88623 18.0947 17.6756 2.14972 38.3862 2.14972C59.0969 2.14972 75.8862 18.0947 75.8862 37.7638Z" fill="#04A4FE"/>
<path fill-rule="evenodd" clip-rule="evenodd" d="M38.3862 68.3918C56.1974 68.3918 70.6362 54.6792 70.6362 37.7638C70.6362 20.8483 56.1974 7.13569 38.3862 7.13569C20.575 7.13569 6.13623 20.8483 6.13623 37.7638C6.13623 54.6792 20.575 68.3918 38.3862 68.3918ZM38.3862 73.3778C59.0969 73.3778 75.8862 57.4328 75.8862 37.7638C75.8862 18.0947 59.0969 2.14972 38.3862 2.14972C17.6756 2.14972 0.88623 18.0947 0.88623 37.7638C0.88623 57.4328 17.6756 73.3778 38.3862 73.3778Z" fill="#04A4FE"/>
<path fill-rule="evenodd" clip-rule="evenodd" d="M19.3308 5.21987C35.9201 -4.46082 58.9986 0.210962 70.7217 16.33C71.2996 17.1245 71.5129 18.108 71.3128 19.0548C70.6901 22.0013 69.7401 24.8238 67.4059 26.4048C64.9915 28.04 62.1813 27.5873 60.6764 27.3448C60.6406 27.339 60.6055 27.3334 60.5712 27.3279C58.5789 27.0085 57.2112 25.2474 57.4783 23.3454C57.931 20.1222 57.1769 16.97 55.8382 14.4942C48.8549 1.57835 20.3791 5.51655 18.1122 20.4586C17.6722 33.4494 59.9087 33.3483 70.8104 45.6595C72.3471 47.3948 73.3755 49.5299 73.3569 52.0223C73.3388 54.4548 72.3262 56.7814 70.6953 58.966C52.7869 82.9538 19.1946 78.1832 5.90263 58.8535C5.51237 58.286 5.30075 57.6244 5.29264 56.9466C5.24445 52.9185 6.76838 49.0583 9.59666 47.1718C11.138 46.1437 13.514 45.5194 15.8004 46.798C17.8064 47.9199 18.6912 49.963 19.0657 51.7643C19.2161 52.4875 19.3417 53.1448 19.4583 53.7547C19.8464 55.7858 20.134 57.291 20.9015 58.9532C27.6916 73.6596 56.7823 71.9481 58.381 54.5424C58.5979 41.6351 30.8611 40.4984 20.0658 36.0906C14.7588 34.5002 9.62851 32.5325 6.49695 29.738C4.84303 28.2622 3.48479 26.3246 3.22989 23.8886C2.97554 21.458 3.88634 19.1663 5.41318 17.1057C9.18449 12.016 13.9865 8.02626 19.3308 5.21987ZM11.5139 52.5276C11.5139 52.5276 11.5189 52.534 11.527 52.5496C11.5176 52.5358 11.5139 52.5276 11.5139 52.5276Z" fill="#F8F8F8"/>
</svg>
